<mxfile host="app.diagrams.net" modified="2023-05-31T13:37:54.952Z" agent="Mozilla/5.0 (Windows NT 10.0; Win64; x64) AppleWebKit/537.36 (KHTML, like Gecko) Chrome/113.0.0.0 Safari/537.36" etag="6d_kNVYimbSb5y6r3H0v" version="21.3.6" type="device" pages="2">
  <diagram name="Page-1" id="JbP1WskBQoZbjHj5cuxg">
    <mxGraphModel dx="2140" dy="1939" grid="1" gridSize="10" guides="1" tooltips="1" connect="1" arrows="1" fold="1" page="1" pageScale="1" pageWidth="827" pageHeight="1169" math="0" shadow="0">
      <root>
        <mxCell id="0" />
        <mxCell id="1" parent="0" />
        <mxCell id="7j6b9tzTI01FeJ4V9dyq-1" value="" style="strokeWidth=1;shadow=0;dashed=0;align=center;html=1;shape=mxgraph.mockup.containers.browserWindow;rSize=0;strokeColor=#666666;strokeColor2=#008cff;strokeColor3=#c4c4c4;mainText=,;recursiveResize=0;" parent="1" vertex="1">
          <mxGeometry x="-60" y="-60" width="720" height="760" as="geometry" />
        </mxCell>
        <mxCell id="7j6b9tzTI01FeJ4V9dyq-2" value="Page 1" style="strokeWidth=1;shadow=0;dashed=0;align=center;html=1;shape=mxgraph.mockup.containers.anchor;fontSize=17;fontColor=#666666;align=left;whiteSpace=wrap;" parent="7j6b9tzTI01FeJ4V9dyq-1" vertex="1">
          <mxGeometry x="60" y="12" width="110" height="26" as="geometry" />
        </mxCell>
        <mxCell id="7j6b9tzTI01FeJ4V9dyq-3" value="https://www.draw.io" style="strokeWidth=1;shadow=0;dashed=0;align=center;html=1;shape=mxgraph.mockup.containers.anchor;rSize=0;fontSize=17;fontColor=#666666;align=left;" parent="7j6b9tzTI01FeJ4V9dyq-1" vertex="1">
          <mxGeometry x="130" y="60" width="250" height="26" as="geometry" />
        </mxCell>
        <mxCell id="wd2-VoVV0iQr9h922736-22" value="" style="rounded=1;whiteSpace=wrap;html=1;" parent="1" vertex="1">
          <mxGeometry x="50" y="90" width="500" height="540" as="geometry" />
        </mxCell>
        <mxCell id="wd2-VoVV0iQr9h922736-11" value="classe" style="strokeWidth=1;shadow=0;dashed=0;align=center;html=1;shape=mxgraph.mockup.forms.comboBox;align=left;fillColor2=#aaddff;mainText=;fontSize=17;spacingLeft=3;strokeColor=#000000;fontColor=#000000;labelBackgroundColor=#FFFFFF;labelBorderColor=#FFFFFF;gradientColor=#FFFFFF;" parent="1" vertex="1">
          <mxGeometry x="232" y="337" width="198" height="30" as="geometry" />
        </mxCell>
        <mxCell id="wd2-VoVV0iQr9h922736-12" value="Prénom" style="strokeWidth=1;shadow=0;dashed=0;align=center;html=1;shape=mxgraph.mockup.text.textBox;fontColor=#666666;align=left;fontSize=17;spacingLeft=4;spacingTop=-3;whiteSpace=wrap;strokeColor=#666666;mainText=" parent="1" vertex="1">
          <mxGeometry x="232" y="216" width="198" height="30" as="geometry" />
        </mxCell>
        <mxCell id="wd2-VoVV0iQr9h922736-15" value="Nom" style="strokeWidth=1;shadow=0;dashed=0;align=center;html=1;shape=mxgraph.mockup.text.textBox;fontColor=#666666;align=left;fontSize=17;spacingLeft=4;spacingTop=-3;whiteSpace=wrap;strokeColor=#666666;mainText=" parent="1" vertex="1">
          <mxGeometry x="233" y="257" width="197" height="30" as="geometry" />
        </mxCell>
        <mxCell id="wd2-VoVV0iQr9h922736-16" value="********" style="strokeWidth=1;shadow=0;dashed=0;align=center;html=1;shape=mxgraph.mockup.forms.pwField;strokeColor=#999999;mainText=;align=left;fontColor=#666666;fontSize=17;spacingLeft=3;" parent="1" vertex="1">
          <mxGeometry x="234" y="377" width="196" height="30" as="geometry" />
        </mxCell>
        <mxCell id="wd2-VoVV0iQr9h922736-19" value="&lt;font style=&quot;font-size: 21px;&quot;&gt;&lt;b&gt;Veuillez vous inscrire&amp;nbsp;&lt;/b&gt;&lt;/font&gt;" style="text;html=1;strokeColor=none;fillColor=none;align=center;verticalAlign=middle;whiteSpace=wrap;rounded=0;" parent="1" vertex="1">
          <mxGeometry x="232" y="147" width="150" height="54" as="geometry" />
        </mxCell>
        <mxCell id="wd2-VoVV0iQr9h922736-20" value="S&#39;inscrire" style="strokeWidth=1;shadow=0;dashed=0;align=center;html=1;shape=mxgraph.mockup.buttons.button;mainText=;buttonStyle=round;fontSize=17;fontStyle=1;whiteSpace=wrap;fillColor=#008CFF;fontColor=#FFFFFF;" parent="1" vertex="1">
          <mxGeometry x="225" y="460" width="150" height="50" as="geometry" />
        </mxCell>
        <mxCell id="1-Lw_fuXOfhVn8eZRqLr-13" value="&lt;font color=&quot;#000000&quot; style=&quot;font-size: 20px;&quot;&gt;PICO&lt;/font&gt;" style="ellipse;shape=cloud;whiteSpace=wrap;html=1;fillColor=#d0cee2;strokeColor=#56517e;" parent="1" vertex="1">
          <mxGeometry x="258" y="102" width="98" height="40" as="geometry" />
        </mxCell>
        <mxCell id="1-Lw_fuXOfhVn8eZRqLr-14" value="Email" style="strokeWidth=1;shadow=0;dashed=0;align=center;html=1;shape=mxgraph.mockup.text.textBox;fontColor=#666666;align=left;fontSize=17;spacingLeft=4;spacingTop=-3;whiteSpace=wrap;strokeColor=#666666;mainText=" parent="1" vertex="1">
          <mxGeometry x="232" y="298" width="198" height="30" as="geometry" />
        </mxCell>
        <mxCell id="1-Lw_fuXOfhVn8eZRqLr-15" value="********" style="strokeWidth=1;shadow=0;dashed=0;align=center;html=1;shape=mxgraph.mockup.forms.pwField;strokeColor=#999999;mainText=;align=left;fontColor=#666666;fontSize=17;spacingLeft=3;" parent="1" vertex="1">
          <mxGeometry x="233" y="419" width="197" height="30" as="geometry" />
        </mxCell>
        <mxCell id="1-Lw_fuXOfhVn8eZRqLr-16" value="" style="line;strokeWidth=2;html=1;" parent="1" vertex="1">
          <mxGeometry x="50" y="520" width="500" height="10" as="geometry" />
        </mxCell>
        <mxCell id="tJRJyOjFE1F9td_IjWvY-1" value="&lt;u&gt;J&#39;ai déjà un compte ?&lt;/u&gt;" style="text;html=1;strokeColor=none;fillColor=none;align=center;verticalAlign=middle;whiteSpace=wrap;rounded=0;fontSize=16;" vertex="1" parent="1">
          <mxGeometry x="217" y="550" width="180" height="30" as="geometry" />
        </mxCell>
        <mxCell id="tJRJyOjFE1F9td_IjWvY-2" value="&lt;b&gt;Prénom :&lt;/b&gt;" style="text;html=1;strokeColor=none;fillColor=none;align=center;verticalAlign=middle;whiteSpace=wrap;rounded=0;fontSize=16;" vertex="1" parent="1">
          <mxGeometry x="52" y="216" width="180" height="30" as="geometry" />
        </mxCell>
        <mxCell id="tJRJyOjFE1F9td_IjWvY-3" value="&lt;b&gt;Nom :&amp;nbsp;&lt;/b&gt;" style="text;html=1;strokeColor=none;fillColor=none;align=center;verticalAlign=middle;whiteSpace=wrap;rounded=0;fontSize=16;" vertex="1" parent="1">
          <mxGeometry x="63" y="258.5" width="180" height="27" as="geometry" />
        </mxCell>
        <mxCell id="tJRJyOjFE1F9td_IjWvY-4" value="&lt;b&gt;Adresse mail :&lt;/b&gt;" style="text;html=1;strokeColor=none;fillColor=none;align=center;verticalAlign=middle;whiteSpace=wrap;rounded=0;fontSize=16;" vertex="1" parent="1">
          <mxGeometry x="54" y="298" width="180" height="27" as="geometry" />
        </mxCell>
        <mxCell id="tJRJyOjFE1F9td_IjWvY-5" value="&lt;b&gt;Classe :&lt;/b&gt;" style="text;html=1;strokeColor=none;fillColor=none;align=center;verticalAlign=middle;whiteSpace=wrap;rounded=0;fontSize=16;" vertex="1" parent="1">
          <mxGeometry x="50" y="339" width="180" height="27" as="geometry" />
        </mxCell>
        <mxCell id="tJRJyOjFE1F9td_IjWvY-6" value="&lt;b&gt;Mot de passe :&amp;nbsp;&lt;/b&gt;" style="text;html=1;strokeColor=none;fillColor=none;align=center;verticalAlign=middle;whiteSpace=wrap;rounded=0;fontSize=16;" vertex="1" parent="1">
          <mxGeometry x="54" y="377" width="180" height="27" as="geometry" />
        </mxCell>
        <mxCell id="tJRJyOjFE1F9td_IjWvY-7" value="&lt;b&gt;Confirmer mot de passe :&amp;nbsp;&lt;/b&gt;" style="text;html=1;strokeColor=none;fillColor=none;align=center;verticalAlign=middle;whiteSpace=wrap;rounded=0;fontSize=16;" vertex="1" parent="1">
          <mxGeometry x="54" y="421" width="180" height="27" as="geometry" />
        </mxCell>
      </root>
    </mxGraphModel>
  </diagram>
  <diagram id="rV7vLwYrJEZ8k0XTwoY6" name="Page-2">
    <mxGraphModel dx="281" dy="501" grid="1" gridSize="10" guides="1" tooltips="1" connect="1" arrows="1" fold="1" page="1" pageScale="1" pageWidth="827" pageHeight="1169" math="0" shadow="0">
      <root>
        <mxCell id="0" />
        <mxCell id="1" parent="0" />
      </root>
    </mxGraphModel>
  </diagram>
</mxfile>
